<mxfile host="Electron" agent="Mozilla/5.0 (Windows NT 10.0; Win64; x64) AppleWebKit/537.36 (KHTML, like Gecko) draw.io/26.0.15 Chrome/132.0.6834.196 Electron/34.2.0 Safari/537.36" version="26.0.15">
  <diagram name="Page-1" id="K5-_3WBgOPwUEwAdYkSD">
    <mxGraphModel dx="1194" dy="806" grid="1" gridSize="10" guides="1" tooltips="1" connect="1" arrows="1" fold="1" page="1" pageScale="1" pageWidth="850" pageHeight="1100" math="0" shadow="0">
      <root>
        <mxCell id="0" />
        <mxCell id="1" parent="0" />
        <mxCell id="HXaN-FVsAorOwEQNycMN-1" value="Start" style="ellipse;whiteSpace=wrap;html=1;" vertex="1" parent="1">
          <mxGeometry x="320" y="30" width="120" height="80" as="geometry" />
        </mxCell>
        <mxCell id="HXaN-FVsAorOwEQNycMN-2" value="Intial Loop numbers 1-25" style="rounded=0;whiteSpace=wrap;html=1;" vertex="1" parent="1">
          <mxGeometry x="320" y="150" width="120" height="60" as="geometry" />
        </mxCell>
        <mxCell id="HXaN-FVsAorOwEQNycMN-3" value="Check if number divisible by 3 and 5&lt;div&gt;Yes = print FizzBuzz&lt;/div&gt;&lt;div&gt;No = False Next Number&lt;/div&gt;&lt;div&gt;&lt;br&gt;&lt;/div&gt;" style="rhombus;whiteSpace=wrap;html=1;" vertex="1" parent="1">
          <mxGeometry x="277.5" y="250" width="205" height="110" as="geometry" />
        </mxCell>
        <mxCell id="HXaN-FVsAorOwEQNycMN-4" value="Is number divisble by 3&lt;div&gt;Yes = Print Fizz&lt;/div&gt;&lt;div&gt;No = False Next Number&lt;/div&gt;&lt;div&gt;&lt;br&gt;&lt;/div&gt;" style="rhombus;whiteSpace=wrap;html=1;" vertex="1" parent="1">
          <mxGeometry x="277.5" y="390" width="200" height="100" as="geometry" />
        </mxCell>
        <mxCell id="HXaN-FVsAorOwEQNycMN-5" value="Is number divisble by 5&lt;div&gt;Yes = Print Buzz&lt;/div&gt;&lt;div&gt;No = False Next Number&lt;/div&gt;" style="rhombus;whiteSpace=wrap;html=1;" vertex="1" parent="1">
          <mxGeometry x="296.25" y="530" width="167.5" height="90" as="geometry" />
        </mxCell>
        <mxCell id="HXaN-FVsAorOwEQNycMN-6" value="End loop&amp;nbsp;&lt;div&gt;If number greater than 25 repeat&lt;/div&gt;&lt;div&gt;If number equal to 25 End Program&lt;/div&gt;" style="rhombus;whiteSpace=wrap;html=1;" vertex="1" parent="1">
          <mxGeometry x="306.25" y="670" width="147.5" height="100" as="geometry" />
        </mxCell>
        <mxCell id="HXaN-FVsAorOwEQNycMN-7" value="" style="endArrow=classic;html=1;rounded=0;" edge="1" parent="1">
          <mxGeometry width="50" height="50" relative="1" as="geometry">
            <mxPoint x="379.5" y="360" as="sourcePoint" />
            <mxPoint x="379.5" y="390" as="targetPoint" />
          </mxGeometry>
        </mxCell>
        <mxCell id="HXaN-FVsAorOwEQNycMN-9" value="" style="endArrow=classic;html=1;rounded=0;" edge="1" parent="1">
          <mxGeometry width="50" height="50" relative="1" as="geometry">
            <mxPoint x="377" y="110" as="sourcePoint" />
            <mxPoint x="377" y="150" as="targetPoint" />
          </mxGeometry>
        </mxCell>
        <mxCell id="HXaN-FVsAorOwEQNycMN-10" value="" style="endArrow=classic;html=1;rounded=0;exitX=0.5;exitY=1;exitDx=0;exitDy=0;" edge="1" parent="1" source="HXaN-FVsAorOwEQNycMN-4">
          <mxGeometry width="50" height="50" relative="1" as="geometry">
            <mxPoint x="377" y="500" as="sourcePoint" />
            <mxPoint x="377" y="540" as="targetPoint" />
          </mxGeometry>
        </mxCell>
        <mxCell id="HXaN-FVsAorOwEQNycMN-11" value="" style="endArrow=classic;html=1;rounded=0;exitX=0.5;exitY=1;exitDx=0;exitDy=0;" edge="1" parent="1" source="HXaN-FVsAorOwEQNycMN-5">
          <mxGeometry width="50" height="50" relative="1" as="geometry">
            <mxPoint x="379.5" y="630" as="sourcePoint" />
            <mxPoint x="380" y="670" as="targetPoint" />
          </mxGeometry>
        </mxCell>
        <mxCell id="HXaN-FVsAorOwEQNycMN-13" value="" style="endArrow=classic;html=1;rounded=0;exitX=0.5;exitY=1;exitDx=0;exitDy=0;" edge="1" parent="1" source="HXaN-FVsAorOwEQNycMN-2" target="HXaN-FVsAorOwEQNycMN-3">
          <mxGeometry width="50" height="50" relative="1" as="geometry">
            <mxPoint x="380" y="230" as="sourcePoint" />
            <mxPoint x="400" y="210" as="targetPoint" />
          </mxGeometry>
        </mxCell>
      </root>
    </mxGraphModel>
  </diagram>
</mxfile>
